<svg id="Layer_1" data-name="Layer 1" xmlns="http://www.w3.org/2000/svg" viewBox="0 0 165.31 46.27"><defs><style>.cls-1{fill:#0099ab;}</style></defs><title>dev sharp logo</title><path d="M39.68,18q6.4,5.86,6.4,16.29T39.84,50.79q-6.24,6.08-19,6.08H5.5V12.13H21.31Q33.28,12.13,39.68,18ZM32.35,44.58Q36,41.12,36,34.53T32.35,24.39q-3.68-3.55-11.3-3.55H15.49V48h6.34Q28.67,48,32.35,44.58Z" transform="translate(-5.5 -11.11)"/><path d="M83.58,51.88a19.25,19.25,0,0,1-13.66,5.5,18.13,18.13,0,0,1-13-4.83q-5.12-4.83-5.12-13t5.22-12.93a17.59,17.59,0,0,1,12.32-4.8,17.82,17.82,0,0,1,12.06,4.29q5,4.29,5,11.78V43H61.31a6.84,6.84,0,0,0,2.94,4.61,9.42,9.42,0,0,0,5.63,1.79,11,11,0,0,0,8.32-3.39ZM74.37,31.46a7.27,7.27,0,0,0-4.83-1.66,8.65,8.65,0,0,0-5.22,1.73,6.61,6.61,0,0,0-2.75,4.67h15.1A6.82,6.82,0,0,0,74.37,31.46Z" transform="translate(-5.5 -11.11)"/><path d="M102.08,56.87,88.45,22.37h10L107,44.07l8.58-21.7h10l-13.63,34.5Z" transform="translate(-5.5 -11.11)"/><path class="cls-1" d="M169.09,30.31h-6.46l-1.34,8h7.36l-1.73,8.83h-7.1l-1.66,9.73h-9.6l1.66-9.73h-5.82l-1.66,9.73h-9.66l1.66-9.73h-6.14l1.73-8.83h6l1.34-8h-6.85l1.73-8.83h6.59l1.73-10.37h9.66l-1.73,10.37h5.76l1.73-10.37H166L164.1,21.48h6.72Zm-16,0h-5.82l-1.41,8h5.82Q152.51,33.19,153.09,30.31Z" transform="translate(-5.5 -11.11)"/></svg>